<?xml version="1.0" encoding="iso-8859-1"?>
<!-- Generator: Adobe Illustrator 19.0.0, SVG Export Plug-In . SVG Version: 6.00 Build 0)  -->
<svg version="1.1" id="Layer_1" xmlns="http://www.w3.org/2000/svg" xmlns:xlink="http://www.w3.org/1999/xlink" x="0px" y="0px"
	 viewBox="0 0 512 512" style="enable-background:new 0 0 512 512;" xml:space="preserve">
<g>
	<g>
		<path d="M495.304,411.826h-83.478v-77.913h16.696c46.03,0,83.478-37.448,83.478-83.478c0-27.345-13.114-52.22-34.991-67.722
			c6.262-30.994-5.994-64.063-33.391-83.478C453.808,48.798,414.672,0,361.739,0c-52.978,0-92.06,48.845-81.879,99.234
			c-9.875,6.998-17.956,15.909-23.86,26.091c-5.904-10.182-13.985-19.093-23.86-26.091C242.333,48.804,203.193,0,150.261,0
			C97.278,0,58.199,48.855,68.382,99.234c-27.432,19.439-39.646,52.537-33.391,83.478C13.114,198.215,0,223.09,0,250.435
			c0,46.03,37.448,83.478,83.478,83.478h16.696v77.913H16.696C7.475,411.826,0,419.301,0,428.522s7.475,16.696,16.696,16.696
			c8.84,0,466.041,0,478.609,0c9.22,0,16.696-7.475,16.696-16.696S504.525,411.826,495.304,411.826z M306.706,122.035
			c7.785-3.764,11.408-12.849,8.349-20.937c-12.776-33.78,12.675-67.706,46.684-67.706c34.008,0,59.461,33.924,46.684,67.706
			c-3.059,8.088,0.564,17.173,8.349,20.937c22.81,11.026,34.655,37.124,25.042,62.541c-3.059,8.089,0.564,17.173,8.349,20.938
			c17.546,8.481,28.445,25.695,28.445,44.921c0,27.618-22.469,50.087-50.087,50.087c-14.043,0-119.101,0-133.565,0
			c-3.531,0-7.007-0.371-10.393-1.083c10.024-13.773,15.958-30.704,15.958-49.004c0-19.936-6.977-38.552-19.23-53.188
			c1.724-3.888,1.981-8.415,0.372-12.671C272.067,159.202,283.852,133.082,306.706,122.035z M83.478,300.522
			c-27.618,0-50.087-22.469-50.087-50.087c0-19.227,10.899-36.44,28.444-44.921c7.785-3.764,11.408-12.848,8.35-20.936
			c-9.603-25.396,2.208-51.505,25.041-62.542c7.785-3.764,11.408-12.848,8.35-20.936c-12.774-33.783,12.676-67.708,46.684-67.708
			c34.012,0,59.457,33.924,46.684,67.708c-3.057,8.089,0.565,17.172,8.35,20.936c22.797,11.02,34.657,37.109,25.041,62.542
			c-3.057,8.089,0.565,17.172,8.35,20.936c17.453,8.436,28.444,25.615,28.444,44.921c0,27.618-22.469,50.087-50.087,50.087
			C203,300.522,97.942,300.522,83.478,300.522z M166.957,411.826h-33.391v-77.913h33.391V411.826z M311.652,411.826H200.348v-77.913
			h16.696c14.05,0,27.292-3.504,38.921-9.661c11.954,6.338,25.236,9.661,38.992,9.661h16.696V411.826z M378.435,411.826h-33.391
			v-77.913h33.391V411.826z"/>
	</g>
</g>
<g>
	<g>
		<path d="M139.13,478.609H16.696C7.475,478.609,0,486.084,0,495.304S7.475,512,16.696,512H139.13
			c9.22,0,16.696-7.475,16.696-16.696S148.351,478.609,139.13,478.609z"/>
	</g>
</g>
<g>
	<g>
		<path d="M317.217,478.609H194.783c-9.22,0-16.696,7.475-16.696,16.696S185.562,512,194.783,512h122.435
			c9.22,0,16.696-7.475,16.696-16.696S326.438,478.609,317.217,478.609z"/>
	</g>
</g>
<g>
	<g>
		<path d="M495.304,478.609H372.87c-9.22,0-16.696,7.475-16.696,16.696S363.649,512,372.87,512h122.435
			c9.22,0,16.696-7.475,16.696-16.696S504.525,478.609,495.304,478.609z"/>
	</g>
</g>
<g>
</g>
<g>
</g>
<g>
</g>
<g>
</g>
<g>
</g>
<g>
</g>
<g>
</g>
<g>
</g>
<g>
</g>
<g>
</g>
<g>
</g>
<g>
</g>
<g>
</g>
<g>
</g>
<g>
</g>
</svg>
